<svg width="30" height="30" xmlns="http://www.w3.org/2000/svg" viewBox="0 0 32 32" id="Ask">
  <g fill="#ffffff" class="color000000 svgShape">
    <path d="M26.39 15.29v-.2l-1-8.3a2.24 2.24 0 0 0-4-1l-.38.53a1 1 0 1 0 1.62 1.17l.38-.54a.24.24 0 0 1 .25-.09.22.22 0 0 1 .18.19l.47 3.79A13.18 13.18 0 0 0 17.13 8a17.36 17.36 0 0 0-1.92 0L14 5a2.55 2.55 0 0 0-2.39-1.6A2.51 2.51 0 0 0 9.28 5L7 11.19a4.75 4.75 0 0 0-.2.54v.08a34.29 34.29 0 0 0-.88 3.92 7.66 7.66 0 0 0-.36 4.64 3.61 3.61 0 0 0 1.21 3.13 3.56 3.56 0 0 0 3.13 2.89A3.51 3.51 0 0 0 13.41 28a2.69 2.69 0 0 0 1.71.65 3 3 0 0 0 1.49-.44 3.36 3.36 0 0 0 3.83-1 3.07 3.07 0 0 0 2.17-1.13 2.7 2.7 0 0 0 1.82-1.42 2.88 2.88 0 0 0 1-2.09 20.32 20.32 0 0 0 1-6.53c0-.27-.02-.51-.04-.75ZM23.49 22a1 1 0 0 0-.08.46.9.9 0 0 1-.44.82 1 1 0 0 0-.29.4c-.09.23-.25.45-.79.51a1 1 0 0 0-.79.55c-.11.23-.31.48-1.23.51a1 1 0 0 0-.79.45c-.38.58-.91 1-2.21.49a1 1 0 0 0-1 .13c-.69.52-1 .39-1.43-.08a1 1 0 0 0-1.11-.28c-.35.14-1.09.42-2.08-1.06a1 1 0 0 0-.85-.45c-.75 0-1.43-.19-1.79-1.75a1.06 1.06 0 0 0-.44-.7c-.19-.11-.69-.42-.6-1.7a1 1 0 0 0-.05-.3 5.72 5.72 0 0 1 .32-3.62 1 1 0 0 0 0-.17 34.8 34.8 0 0 1 .82-3.73l2.46-6.71a.53.53 0 0 1 1 0l1 2.44c-.54.09-1.08.2-1.61.34a1 1 0 1 0 .53 1.93 13.46 13.46 0 0 1 4.87-.48c2.86.32 7 2.21 7.47 5.33a4.21 4.21 0 0 1 0 .62 17.36 17.36 0 0 1-.89 6.05Z" fill="#ffffff" class="color000000 svgShape"></path>
    <path d="M19.59 12.28c-1.64.1-2.82 1.88-2.68 4s1.44 3.69 3 3.69h.15a2.65 2.65 0 0 0 2.11-1.42 4.64 4.64 0 0 0 .58-2.55c-.13-2.21-1.51-3.83-3.16-3.72zm.87 5.29c-.16.26-.35.42-.51.43-.37 0-1-.68-1.05-1.8s.44-1.9.81-1.93c.37 0 1 .71 1 1.81a2.79 2.79 0 0 1-.25 1.49zm-5.07-1.06c.83-2 .3-4.07-1.22-4.7a2.65 2.65 0 0 0-2.51.35 4.61 4.61 0 0 0-1.66 2.1c-.83 2-.29 4.07 1.22 4.7a2.42 2.42 0 0 0 .91.18 3.86 3.86 0 0 0 3.28-2.63zm-1.84-.77c-.44 1-1.24 1.51-1.58 1.37s-.57-1-.14-2.08a2.71 2.71 0 0 1 .93-1.21 1 1 0 0 1 .51-.19.32.32 0 0 1 .14 0c.34.17.59 1.08.14 2.11zm2.51 1.67a1 1 0 0 0-1.11.88l-.19 1.62a1 1 0 0 0 .87 1.09h.12a1 1 0 0 0 1-.89l.19-1.62a1 1 0 0 0-.88-1.08z" fill="#ffffff" class="color000000 svgShape"></path>
  </g>
</svg>
