<svg xmlns="http://www.w3.org/2000/svg" xmlns:xlink="http://www.w3.org/1999/xlink" viewBox="0,0,256,256" width="24px" height="24px" fill-rule="nonzero"><g fill="#ffffff" fill-rule="nonzero" stroke="none" stroke-width="1" stroke-linecap="butt" stroke-linejoin="miter" stroke-miterlimit="10" stroke-dasharray="" stroke-dashoffset="0" font-family="none" font-weight="none" font-size="none" text-anchor="none" style="mix-blend-mode: normal"><g transform="scale(10.66667,10.66667)"><path d="M12,3c-4.95852,0 -9,4.04148 -9,9c0,5.4 3.19922,9.59961 3.19922,9.59961c0.21418,0.2862 0.5648,0.43636 0.91974,0.39391c0.35494,-0.04245 0.66025,-0.27106 0.8009,-0.5997c0.14065,-0.32864 0.09525,-0.70735 -0.11908,-0.99343c0,0 -2.80078,-3.80039 -2.80078,-8.40039c0,-3.87748 3.12252,-7 7,-7c3.87748,0 7,3.12252 7,7c0,0.56503 -0.43497,1 -1,1c-0.56503,0 -1,-0.43497 -1,-1c0.00012,-0.03719 -0.00184,-0.07436 -0.00586,-0.11133c-0.06028,-2.69822 -2.28216,-4.88867 -4.99414,-4.88867c-2.74952,0 -5,2.25048 -5,5c0,5.53333 4.40039,8.80078 4.40039,8.80078c0.44226,0.33115 1.06924,0.24109 1.40039,-0.20117c0.33115,-0.44226 0.24109,-1.06924 -0.20117,-1.40039c0,0 -3.59961,-2.73255 -3.59961,-7.19922c0,-1.66848 1.33152,-3 3,-3c1.66848,0 3,1.33152 3,3c-0.00075,0.07283 0.00645,0.14553 0.02148,0.2168c0.11451,1.54387 1.40764,2.7832 2.97852,2.7832c1.57154,0 2.86497,-1.24038 2.97852,-2.78516c0.01489,-0.07063 0.0221,-0.14266 0.02148,-0.21484c0.00019,-0.03784 -0.00176,-0.07566 -0.00586,-0.11328c-0.06168,-4.90605 -4.07387,-8.88672 -8.99414,-8.88672zM11.98438,10.98633c-0.55152,0.00862 -0.99193,0.46214 -0.98437,1.01367c0,1.33333 0.5715,3.19752 1.98242,4.89063c1.41092,1.6931 3.7398,3.10938 7.01758,3.10938c0.36064,0.0051 0.69608,-0.18438 0.87789,-0.49587c0.18181,-0.3115 0.18181,-0.69676 0,-1.00825c-0.18181,-0.3115 -0.51725,-0.50097 -0.87789,-0.49587c-2.72222,0 -4.39334,-1.08373 -5.48242,-2.39062c-1.08908,-1.3069 -1.51758,-2.94271 -1.51758,-3.60937c0.0037,-0.2703 -0.10218,-0.53059 -0.29351,-0.72155c-0.19133,-0.19097 -0.45182,-0.29634 -0.72212,-0.29212z"></path></g></g></svg>