<svg xmlns="http://www.w3.org/2000/svg" width="500" zoomAndPan="magnify" viewBox="0 0 375 374.999991" height="500" preserveAspectRatio="xMidYMid meet" version="1.0"><defs><clipPath id="f3702bc2f6"><path d="M 131.25 135.121094 L 243.75 135.121094 L 243.75 247.621094 L 131.25 247.621094 Z M 131.25 135.121094 " clip-rule="nonzero"/></clipPath><clipPath id="e481620254"><path d="M 187.5 135.121094 C 156.433594 135.121094 131.25 160.304688 131.25 191.371094 C 131.25 222.433594 156.433594 247.621094 187.5 247.621094 C 218.566406 247.621094 243.75 222.433594 243.75 191.371094 C 243.75 160.304688 218.566406 135.121094 187.5 135.121094 Z M 187.5 135.121094 " clip-rule="nonzero"/></clipPath><clipPath id="09078946ed"><path d="M 158.691406 167.566406 L 178.210938 167.566406 L 178.210938 187.539062 L 158.691406 187.539062 Z M 158.691406 167.566406 " clip-rule="nonzero"/></clipPath><clipPath id="268622c4ab"><path d="M 168.449219 167.566406 C 163.058594 167.566406 158.691406 172.027344 158.691406 177.53125 C 158.691406 183.039062 163.058594 187.5 168.449219 187.5 C 173.839844 187.5 178.210938 183.039062 178.210938 177.53125 C 178.210938 172.027344 173.839844 167.566406 168.449219 167.566406 Z M 168.449219 167.566406 " clip-rule="nonzero"/></clipPath><clipPath id="024122139f"><path d="M 158.691406 207.132812 L 215 207.132812 L 215 232.289062 L 158.691406 232.289062 Z M 158.691406 207.132812 " clip-rule="nonzero"/></clipPath><clipPath id="9ade711e17"><path d="M 177.480469 230.824219 C 180.371094 231.710938 183.652344 232.289062 186.875 232.289062 C 190.097656 232.289062 193.199219 231.792969 196.058594 230.910156 C 196.117188 230.878906 196.179688 230.878906 196.242188 230.851562 C 206.972656 227.316406 214.878906 217.972656 215.03125 207.882812 L 215.03125 207.132812 L 158.691406 207.132812 L 158.691406 207.882812 C 158.84375 218.027344 166.625 227.371094 177.480469 230.824219 Z M 177.480469 230.824219 " clip-rule="nonzero"/></clipPath><clipPath id="459060324c"><path d="M 171.429688 211.789062 L 202.367188 211.789062 L 202.367188 219.734375 L 171.429688 219.734375 Z M 171.429688 211.789062 " clip-rule="nonzero"/></clipPath><clipPath id="cd5765284b"><path d="M 192.058594 212.265625 C 190.472656 211.976562 188.671875 211.789062 186.902344 211.789062 C 185.136719 211.789062 183.433594 211.949219 181.867188 212.238281 C 181.832031 212.246094 181.796875 212.246094 181.765625 212.257812 C 175.875 213.410156 171.539062 216.453125 171.457031 219.734375 L 202.367188 219.734375 C 202.285156 216.433594 198.015625 213.390625 192.058594 212.265625 Z M 192.058594 212.265625 " clip-rule="nonzero"/></clipPath><clipPath id="b8f8f27965"><path d="M 171.464844 219.289062 L 202.394531 219.289062 L 202.394531 232.289062 L 171.464844 232.289062 Z M 171.464844 219.289062 " clip-rule="nonzero"/></clipPath><clipPath id="470b29e057"><path d="M 181.773438 231.507812 C 183.359375 231.980469 185.160156 232.289062 186.929688 232.289062 C 188.699219 232.289062 190.398438 232.023438 191.96875 231.554688 C 192 231.539062 192.035156 231.539062 192.066406 231.523438 C 197.957031 229.636719 202.292969 224.660156 202.378906 219.289062 L 171.464844 219.289062 C 171.550781 224.6875 175.820312 229.667969 181.773438 231.507812 Z M 181.773438 231.507812 " clip-rule="nonzero"/></clipPath><clipPath id="038108197a"><path d="M 195.511719 167.566406 L 215.03125 167.566406 L 215.03125 187.539062 L 195.511719 187.539062 Z M 195.511719 167.566406 " clip-rule="nonzero"/></clipPath><clipPath id="481723eaa3"><path d="M 205.269531 167.566406 C 199.882812 167.566406 195.511719 172.027344 195.511719 177.53125 C 195.511719 183.039062 199.882812 187.5 205.269531 187.5 C 210.660156 187.5 215.03125 183.039062 215.03125 177.53125 C 215.03125 172.027344 210.660156 167.566406 205.269531 167.566406 Z M 205.269531 167.566406 " clip-rule="nonzero"/></clipPath></defs><g clip-path="url(#f3702bc2f6)"><g clip-path="url(#e481620254)"><path fill="#5ce1e6" d="M 131.25 135.121094 L 243.75 135.121094 L 243.75 247.621094 L 131.25 247.621094 Z M 131.25 135.121094 " fill-opacity="1" fill-rule="nonzero"/></g></g><g clip-path="url(#09078946ed)"><g clip-path="url(#268622c4ab)"><path fill="#000000" d="M 158.691406 167.566406 L 178.210938 167.566406 L 178.210938 187.464844 L 158.691406 187.464844 Z M 158.691406 167.566406 " fill-opacity="1" fill-rule="nonzero"/></g></g><g clip-path="url(#024122139f)"><g clip-path="url(#9ade711e17)"><path fill="#000000" d="M 158.691406 207.132812 L 215 207.132812 L 215 232.289062 L 158.691406 232.289062 Z M 158.691406 207.132812 " fill-opacity="1" fill-rule="nonzero"/></g></g><g clip-path="url(#459060324c)"><g clip-path="url(#cd5765284b)"><path fill="#ff66c4" d="M 202.367188 219.734375 L 171.460938 219.734375 L 171.460938 211.789062 L 202.367188 211.789062 Z M 202.367188 219.734375 " fill-opacity="1" fill-rule="nonzero"/></g></g><g clip-path="url(#b8f8f27965)"><g clip-path="url(#470b29e057)"><path fill="#ff66c4" d="M 171.464844 219.289062 L 202.394531 219.289062 L 202.394531 232.289062 L 171.464844 232.289062 Z M 171.464844 219.289062 " fill-opacity="1" fill-rule="nonzero"/></g></g><g clip-path="url(#038108197a)"><g clip-path="url(#481723eaa3)"><path fill="#000000" d="M 195.511719 167.566406 L 215.03125 167.566406 L 215.03125 187.464844 L 195.511719 187.464844 Z M 195.511719 167.566406 " fill-opacity="1" fill-rule="nonzero"/></g></g></svg>