<svg width="20" height="20" xmlns="http://www.w3.org/2000/svg" viewBox="0 0 128 128" id="Thanos">
  <path d="M46 50a2 2 0 0 0 4 0v-1.13a8.36 8.36 0 0 1 3.58 1.35 2 2 0 1 0 2.66-3c-.3-.27-3.07-2.59-8.93-2.59-6.49 0-8.58 4.64-8.67 4.83a2 2 0 0 0 1 2.6 2 2 0 0 0 .82.18 2 2 0 0 0 1.82-1.15A4.9 4.9 0 0 1 46 48.75zm8 14a2 2 0 0 0 4 0 1 1 0 0 1 0-.18h.21c.64.15.93.49 1.48 1.19a4.58 4.58 0 0 0 3.73 2.17h1.06A4.58 4.58 0 0 0 68.26 65c.55-.7.84-1 1.48-1.19h.21A.86.86 0 0 1 70 64a2 2 0 0 0 4 0 4.48 4.48 0 0 0-1.53-3.38 4.12 4.12 0 0 0-3.6-.67 6.33 6.33 0 0 0-3.74 2.62 3.49 3.49 0 0 1-.59.64h-1.08a3.91 3.91 0 0 1-.58-.64A6.33 6.33 0 0 0 59.14 60a4.09 4.09 0 0 0-3.6.67A4.48 4.48 0 0 0 54 64zm27.85 21.64c-1.58-.7-9.58-4.16-12.7-4.13a10.83 10.83 0 0 0-3.82.72 3.1 3.1 0 0 1-2.66 0 10.83 10.83 0 0 0-3.82-.72c-3.13 0-11.12 3.43-12.7 4.13a2 2 0 0 0 1.61 3.66c3.58-1.58 9.33-3.79 11-3.79a6.92 6.92 0 0 1 2.55.49 6.94 6.94 0 0 0 5.32 0 6.92 6.92 0 0 1 2.55-.49c1.68 0 7.43 2.21 11 3.79a2.05 2.05 0 0 0 .8.17 2 2 0 0 0 .81-3.83zm-1.16-40.99c-5.86 0-8.63 2.32-8.93 2.59a2 2 0 0 0-.17 2.76 2 2 0 0 0 2.81.22 8.38 8.38 0 0 1 3.6-1.35V50a2 2 0 0 0 4 0v-1.25a5 5 0 0 1 3.71 2.36 2 2 0 0 0 1.82 1.17 2 2 0 0 0 .79-.16 2 2 0 0 0 1-2.64c-.05-.19-2.14-4.83-8.63-4.83z" fill="#ffffff" class="color000000 svgShape"></path>
  <path d="M105.2 53.13a3.73 3.73 0 0 0-1.27-.14c-.21-3.43-.41-6.55-.58-9.08C101.9 22 98.72 15.28 93.7 11 87.25 5.58 78.68 0 64 0S40.75 5.58 34.3 11c-5 4.24-8.2 11-9.65 32.87-.17 2.53-.37 5.65-.58 9.08a3.73 3.73 0 0 0-1.27.14c-4.7 1.34-4.57 12.32-4.12 15.31a45.81 45.81 0 0 0 2.54 8.14 31.49 31.49 0 0 1 1.71 5.27v1.66c.11 15.44 1.7 30.63 14.84 38.64a1.86 1.86 0 0 0 .76.43c6 3.4 14.14 5.4 25.46 5.4s19.51-2 25.46-5.4a1.86 1.86 0 0 0 .76-.43c13.14-8 14.73-23.2 14.84-38.64v-1.66a31.49 31.49 0 0 1 1.71-5.27 45.81 45.81 0 0 0 2.54-8.14c.47-2.95.6-13.93-4.1-15.27ZM22.63 67.84c-.54-3.56.17-8.82 1.08-10.49a5.39 5.39 0 0 1 .06.8c-.22 3.88-.42 8-.57 12a17 17 0 0 1-.57-2.31Zm78.43 15.66c-.09 13.33-1.19 25.27-9.45 32.68.34-7-1.16-16.25-1.38-17.54a2 2 0 1 0-3.94.66c.68 4 2.08 15 .93 20a31.42 31.42 0 0 1-6.22 2.57c0-2.42-.13-6.54-.53-10.74-.24-2.45-1.21-15-1.22-15.13a2 2 0 0 0-4 .31c0 .52 1 12.71 1.22 15.2.45 4.62.52 9.28.52 11.35a56.22 56.22 0 0 1-6 .84c0-2.2-.09-7.15 0-13.66a79.82 79.82 0 0 0-1-14.41 2 2 0 0 0-3.94.74A75.51 75.51 0 0 1 67 110c-.12 6.73-.06 11.84 0 14h-6c0-1.94.09-6.37 0-13a93.7 93.7 0 0 1 1-14.65 2 2 0 0 0-4-.63A98.35 98.35 0 0 0 57 111c.12 6.31.07 10.67 0 12.66a56.22 56.22 0 0 1-6-.84c0-2.07.07-6.73.52-11.35.24-2.49 1.18-14.68 1.22-15.2a2 2 0 0 0-4-.31c0 .13-1 12.68-1.22 15.13-.4 4.2-.5 8.32-.53 10.74a31.42 31.42 0 0 1-6.22-2.58c-1.15-4.94.25-16 .93-20a2 2 0 1 0-3.94-.66c-.22 1.29-1.72 10.57-1.38 17.54-8.25-7.36-9.38-19.3-9.44-32.63-.09-12.23 1.08-29.86 1.7-39.32 1.5-22.59 4.89-27.25 8.24-30.09C42.78 9.1 50.61 4 64 4s21.22 5.1 27.12 10.09c3.35 2.84 6.74 7.5 8.24 30.09.64 9.46 1.79 27.09 1.7 39.32Zm4.31-15.66a17 17 0 0 1-.57 2.3c-.15-4-.35-8.11-.57-12a5.39 5.39 0 0 1 .06-.8c.91 1.66 1.62 6.94 1.08 10.5Z" fill="#ffffff" class="color000000 svgShape"></path>
</svg>
